<svg width="99" height="40" xmlns="http://www.w3.org/2000/svg"><defs><linearGradient x1=".003%" y1="50.022%" x2="100.01%" y2="50.022%" id="a"><stop stop-color="#036EB8" offset="0%"/><stop stop-color="#0569B4" offset="7%"/><stop stop-color="#123B94" offset="69%"/><stop stop-color="#172A88" offset="100%"/></linearGradient><linearGradient x1="-.009%" y1="49.967%" x2="99.984%" y2="49.967%" id="b"><stop stop-color="#036EB8" offset="0%"/><stop stop-color="#0569B4" offset="7%"/><stop stop-color="#123B94" offset="69%"/><stop stop-color="#172A88" offset="100%"/></linearGradient><linearGradient x1=".003%" y1="50.022%" x2="100.01%" y2="50.022%" id="c"><stop stop-color="#2EA7E0" offset="0%"/><stop stop-color="#2C9EDA" offset="14%"/><stop stop-color="#2887C9" offset="37%"/><stop stop-color="#2160AE" offset="66%"/><stop stop-color="#172C89" offset="99%"/><stop stop-color="#172A88" offset="100%"/></linearGradient><linearGradient x1=".002%" y1="49.971%" x2="99.999%" y2="49.971%" id="d"><stop stop-color="#2EA7E0" offset="0%"/><stop stop-color="#2C9EDA" offset="14%"/><stop stop-color="#2887C9" offset="37%"/><stop stop-color="#2160AE" offset="66%"/><stop stop-color="#172C89" offset="99%"/><stop stop-color="#172A88" offset="100%"/></linearGradient><linearGradient x1="99.953%" y1="50.04%" x2="-.055%" y2="50.04%" id="e"><stop stop-color="#036EB8" offset="0%"/><stop stop-color="#0569B4" offset="7%"/><stop stop-color="#123B94" offset="69%"/><stop stop-color="#172A88" offset="100%"/></linearGradient><linearGradient x1="99.989%" y1="50.119%" x2="-.003%" y2="50.119%" id="f"><stop stop-color="#036EB8" offset="0%"/><stop stop-color="#0569B4" offset="7%"/><stop stop-color="#123B94" offset="69%"/><stop stop-color="#172A88" offset="100%"/></linearGradient><linearGradient x1="99.953%" y1="50.047%" x2="-.055%" y2="50.047%" id="g"><stop stop-color="#2EA7E0" offset="0%"/><stop stop-color="#298CCD" offset="15%"/><stop stop-color="#2162AF" offset="41%"/><stop stop-color="#1C439A" offset="65%"/><stop stop-color="#18318D" offset="86%"/><stop stop-color="#172A88" offset="100%"/></linearGradient><linearGradient x1="-204.531%" y1="50.105%" x2="-104.519%" y2="50.105%" id="h"><stop stop-color="#2EA7E0" offset="0%"/><stop stop-color="#298CCD" offset="15%"/><stop stop-color="#2162AF" offset="41%"/><stop stop-color="#1C439A" offset="65%"/><stop stop-color="#18318D" offset="86%"/><stop stop-color="#172A88" offset="100%"/></linearGradient><linearGradient x1="48.285%" y1="91.219%" x2="63.843%" y2="-5.719%" id="i"><stop stop-color="#E60012" offset="0%"/><stop stop-color="#F6AD64" offset="80%"/></linearGradient><linearGradient x1="34.54%" y1="92.117%" x2="55.461%" y2="22.573%" id="j"><stop stop-color="#F6AD64" offset="0%"/><stop stop-color="#E60012" offset="80%"/></linearGradient><linearGradient x1="50%" y1="39.998%" x2="50%" y2="99.995%" id="k"><stop stop-color="#0064C6" offset="0%"/><stop stop-color="#00289E" offset="100%"/></linearGradient><linearGradient x1="50.112%" y1="-17.396%" x2="50.112%" y2="104.885%" id="l"><stop stop-color="#0064C6" offset="40%"/><stop stop-color="#00289E" offset="100%"/></linearGradient><linearGradient x1="49.999%" y1="-17.393%" x2="49.999%" y2="104.864%" id="m"><stop stop-color="#0064C6" offset="40%"/><stop stop-color="#00289E" offset="100%"/></linearGradient></defs><g fill-rule="nonzero" fill="none"><path d="M11.442 0c5.04 0 9.49 3.44 10.968 8.48.037.125.073.255.105.38-.196.54-1.835.96-3.826.96-1.857 0-3.769-.856-3.769-.858-.024-.07-.048-.14-.076-.211-1.254-3.366-4.5-5.446-7.938-5.087C3.47 4.023.681 6.734.09 10.293.899 4.387 5.736 0 11.442 0" fill="url(#a)" transform="translate(0 12.827)"/><path d="m22.694 14.831-.037.156c-1.443 5.827-6.84 9.63-12.594 8.873C4.31 23.103-.003 18.025 0 12.01v-.22c.043 3.783 2.63 7.019 6.206 7.763 3.576.743 7.166-1.21 8.61-4.682.044-.102.086-.201.12-.312.451-.467 1.984-.816 3.813-.816 2.178 0 3.94.485 3.945 1.088Z" fill="url(#b)" transform="translate(0 12.827)"/><path d="M11.442 0C5.736 0 .899 4.387.09 10.293c.086-.51.218-1.011.396-1.495 1.363-4.304 5.31-7.124 9.64-6.886 4.331.238 7.973 3.476 8.896 7.906 1.838-.043 3.308-.446 3.493-.956a9.302 9.302 0 0 0-.105-.38C20.933 3.442 16.483 0 11.442 0" fill="url(#c)" transform="translate(0 12.827)"/><path d="M19.184 13.75c-.873 5.05-5.281 8.6-10.213 8.224C4.04 21.599.178 17.419.026 12.292.013 12.125 0 11.958 0 11.79v.22c-.002 6.016 4.311 11.094 10.064 11.85 5.753.754 11.15-3.049 12.592-8.876 0 0 .027-.105.037-.156-.003-.559-1.539-1.019-3.51-1.078Z" fill="url(#d)" transform="translate(0 12.827)"/><path d="M7.232 5.146c-2.842.002-5.351 1.941-6.185 4.78-.021.07-.042.143-.06.213.111.307 1.036.544 2.159.544.73-.029 1.45-.193 2.126-.484.013-.04.025-.08.042-.119.707-1.897 2.537-3.07 4.476-2.867 1.938.203 3.51 1.73 3.844 3.735-.457-3.327-3.184-5.799-6.402-5.802" fill="url(#e)" transform="translate(0 12.827)"/><path d="M.897 13.414c0 .025.02.083.02.085.83 3.272 3.848 5.399 7.06 4.975 3.213-.424 5.63-3.267 5.657-6.653v-.124c-.025 2.14-1.478 3.97-3.484 4.39-2.007.42-4.02-.685-4.831-2.651a2.583 2.583 0 0 1-.068-.173c-.248-.266-1.112-.463-2.14-.463-1.22-.002-2.21.28-2.214.614Z" fill="url(#f)" transform="translate(0 12.827)"/><path d="M7.233 5.146c3.217.003 5.945 2.475 6.401 5.802a4.532 4.532 0 0 0-.224-.843c-.762-2.433-2.99-4.029-5.437-3.894-2.447.135-4.503 1.967-5.015 4.47-1.038-.03-1.866-.252-1.971-.54.018-.07.039-.143.06-.214.833-2.84 3.342-4.778 6.186-4.781" fill="url(#g)" transform="translate(0 12.827)"/><path d="M2.867 12.804c.036.206.082.41.139.611.739 2.688 3.245 4.408 5.897 4.05 2.652-.359 4.657-2.69 4.717-5.484.008-.093.013-.19.014-.283v.124c-.026 3.385-2.443 6.228-5.656 6.653-3.212.424-6.23-1.701-7.06-4.973l-.021-.085c.003-.32.865-.58 1.97-.613Z" fill="url(#h)" transform="translate(0 12.827)"/><g><path d="M40.787 25.73a3.875 3.875 0 0 0-2.683-1.096 4.41 4.41 0 0 0 2.603-.867 3.826 3.826 0 0 0 1.294-2.93 4.639 4.639 0 0 0 1.129 3.065 3.7 3.7 0 0 0 2.552.985 4.626 4.626 0 0 0-2.564.868 3.75 3.75 0 0 0-1.333 2.93 4.064 4.064 0 0 0-.998-2.955Z" fill="#FABE00"/><path d="M30.707 38.623c-11.944-2.635-19.485-8.141-18.61-11.952C13.392 20.984 35.452 2.582 13.69 0c0 0 7.037 10.573-4.276 22.003l2.854-13.5L2.7 12.89l2.182.048L0 40l6.53-4.345c.423-2.688.74-4.421.956-5.199 4.828 6.535 12.568 9.257 23.221 8.167Z" fill="url(#i)" transform="translate(21.398)"/><path d="M13.785 0S20.87 10.626 9.39 22.077l-.097.1c3.288-.844 6.765-2.855 9.772-5.894C23.896 9.318 27.318 1.603 13.785 0Z" fill="url(#j)" transform="translate(21.398)"/></g><path d="M85.284 14.545H70.656l-3.788 21.818h15.174l-.46-5.21h-8.627l.588-3.387h6.353l2.1-5.18h-7.542l.468-2.83H87.312l-2.907 16.608h5.177l2.945-16.608h3.104c.743-.008 1.247-.403 1.526-1.033L99 14.546H85.284Z" fill="url(#k)"/><g><path d="m9.39 9.376-.3 1.762a90.93 90.93 0 0 0 .3-1.762Z" fill="url(#l)" transform="translate(46.895 14.545)"/><path d="M17.672 11.249c-.67-.554-1.422-.883-2.22-1.075-.054-.013-.104-.051-.156-.078.045-.025.085-.06.134-.074.423-.115.854-.204 1.267-.344.994-.335 1.832-.896 2.408-1.803.643-1.014.914-2.183.862-3.457-.071-1.763-.993-3.137-2.556-3.884-.88-.421-1.78-.56-2.694-.53l-1.49.02c-.035-.006-.073 0-.11 0L8.86.036C7.48.04 6.67.045 5.292.045c-1.2 0-1.37.146-1.609 1.07L.02 21.464c-.064.264.036.338.155.351.045.006.09.002.135.001 2.496-.006 2.998.002 5.494.002 1.668 0 1.62-1.133 1.713-1.73L9.39 9.376c.03-.191.068-.381.085-.576.035-.398-.311-.13-.428-.014-.982.98-1.403 1.55-2.24 2.524-.405.471-1.034 1.221-1.494 1.772-.16.19-.465.035-.42-.216l.925-5.194c.07-.387.25-.741.52-1.015.126-.13.249-.252.461-.465C10.504 2.547 13.693.51 14.47.058a.426.426 0 0 0-.022.082L11.51 16.924l-.625 3.974c-.072.46.286.881.737.864h.01c1.183-.046 2.729-.202 3.827-.58 1.8-.622 3.063-1.817 3.632-3.743.33-1.116.486-2.269.217-3.498a4.7 4.7 0 0 0-1.635-2.692Z" fill="url(#m)" transform="translate(46.895 14.545)"/></g></g></svg>